<svg width="26" height="25" viewBox="0 0 26 25" fill="none" xmlns="http://www.w3.org/2000/svg">
<path d="M1.82617 5.72644C1.82617 4.5019 1.82617 3.88963 2.04289 3.40666C2.33186 2.76271 2.88611 2.25109 3.58373 1.98435C4.10695 1.7843 4.77024 1.7843 6.09682 1.7843C7.4234 1.7843 8.08669 1.7843 8.6099 1.98435C9.30752 2.25109 9.86178 2.76271 10.1507 3.40666C10.3675 3.88963 10.3675 4.5019 10.3675 5.72644C10.3675 6.95097 10.3675 7.56324 10.1507 8.04621C9.86178 8.69016 9.30752 9.20178 8.6099 9.46852C8.08669 9.66857 7.4234 9.66857 6.09682 9.66857C4.77024 9.66857 4.10695 9.66857 3.58373 9.46852C2.88611 9.20178 2.33186 8.69016 2.04289 8.04621C1.82617 7.56324 1.82617 6.95097 1.82617 5.72644Z" stroke="#989A9D" stroke-width="2.5"/>
<path d="M16.0617 5.72644C16.0617 4.5019 16.0617 3.88963 16.2784 3.40666C16.5673 2.76271 17.1216 2.25109 17.8192 1.98435C18.3424 1.7843 19.0057 1.7843 20.3323 1.7843C21.6589 1.7843 22.3222 1.7843 22.8454 1.98435C23.543 2.25109 24.0973 2.76271 24.3862 3.40666C24.6029 3.88963 24.6029 4.5019 24.6029 5.72644C24.6029 6.95097 24.6029 7.56324 24.3862 8.04621C24.0973 8.69016 23.543 9.20178 22.8454 9.46852C22.3222 9.66857 21.6589 9.66857 20.3323 9.66857C19.0057 9.66857 18.3424 9.66857 17.8192 9.46852C17.1216 9.20178 16.5673 8.69016 16.2784 8.04621C16.0617 7.56324 16.0617 6.95097 16.0617 5.72644Z" stroke="#989A9D" stroke-width="2.5"/>
<path d="M1.82617 18.8669C1.82617 17.6423 1.82617 17.0301 2.04289 16.5471C2.33186 15.9032 2.88611 15.3915 3.58373 15.1248C4.10695 14.9247 4.77024 14.9247 6.09682 14.9247C7.4234 14.9247 8.08669 14.9247 8.6099 15.1248C9.30752 15.3915 9.86178 15.9032 10.1507 16.5471C10.3675 17.0301 10.3675 17.6423 10.3675 18.8669C10.3675 20.0914 10.3675 20.7037 10.1507 21.1867C9.86178 21.8306 9.30752 22.3422 8.6099 22.609C8.08669 22.809 7.4234 22.809 6.09682 22.809C4.77024 22.809 4.10695 22.809 3.58373 22.609C2.88611 22.3422 2.33186 21.8306 2.04289 21.1867C1.82617 20.7037 1.82617 20.0914 1.82617 18.8669Z" stroke="#989A9D" stroke-width="2.5"/>
<path d="M16.0617 18.8669C16.0617 17.6423 16.0617 17.0301 16.2784 16.5471C16.5673 15.9032 17.1216 15.3915 17.8192 15.1248C18.3424 14.9247 19.0057 14.9247 20.3323 14.9247C21.6589 14.9247 22.3222 14.9247 22.8454 15.1248C23.543 15.3915 24.0973 15.9032 24.3862 16.5471C24.6029 17.0301 24.6029 17.6423 24.6029 18.8669C24.6029 20.0914 24.6029 20.7037 24.3862 21.1867C24.0973 21.8306 23.543 22.3422 22.8454 22.609C22.3222 22.809 21.6589 22.809 20.3323 22.809C19.0057 22.809 18.3424 22.809 17.8192 22.609C17.1216 22.3422 16.5673 21.8306 16.2784 21.1867C16.0617 20.7037 16.0617 20.0914 16.0617 18.8669Z" stroke="#989A9D" stroke-width="2.5"/>
</svg>
