<svg width="27" height="26" viewBox="0 0 27 26" fill="none" xmlns="http://www.w3.org/2000/svg">
<path d="M3.37773 16.8107L4.56393 16.4165L3.37773 16.8107ZM2.16028 10.2003L3.36037 10.55L2.16028 10.2003ZM7.24409 5.17823L6.52028 4.15912L7.24409 5.17823ZM2.28447 9.82663L3.45513 10.2649L2.28447 9.82663ZM6.69262 23.0892L6.00634 24.1339L6.69262 23.0892ZM6.36747 22.8582L5.60701 23.8503H5.60701L6.36747 22.8582ZM23.6223 16.8107L22.4361 16.4165L23.6223 16.8107ZM20.6325 22.8582L21.393 23.8503L20.6325 22.8582ZM20.3074 23.0892L20.9937 24.1339L20.3074 23.0892ZM19.7559 5.17823L20.4797 4.15912L19.7559 5.17823ZM24.7155 9.82663L23.5449 10.2649L24.7155 9.82663ZM24.8397 10.2003L23.6396 10.55L24.8397 10.2003ZM13.701 2.0036L13.6562 3.2528L13.701 2.0036ZM13.299 2.0036L13.3438 3.2528L13.299 2.0036ZM12.25 21.0976C12.25 21.7879 12.8096 22.3476 13.5 22.3476C14.1904 22.3476 14.75 21.7879 14.75 21.0976H12.25ZM14.75 18.9542C14.75 18.2638 14.1904 17.7042 13.5 17.7042C12.8096 17.7042 12.25 18.2638 12.25 18.9542H14.75ZM17.8852 23.8698L18.0322 25.1111L17.8852 23.8698ZM4.56393 16.4165C3.9968 14.7102 3.6051 13.5261 3.40088 12.5727C3.20299 11.6489 3.21071 11.0636 3.36037 10.55L0.960184 9.85062C0.6522 10.9076 0.710273 11.9476 0.956337 13.0964C1.19608 14.2156 1.64193 15.5514 2.19154 17.205L4.56393 16.4165ZM6.52028 4.15912C5.08058 5.18166 3.91915 6.00449 3.0545 6.7702C2.16878 7.55457 1.49931 8.35865 1.11382 9.38838L3.45513 10.2649C3.64378 9.76097 3.9923 9.2791 4.71194 8.64181C5.45265 7.98585 6.48396 7.25131 7.96791 6.19734L6.52028 4.15912ZM3.36037 10.55C3.38837 10.4539 3.41997 10.3588 3.45513 10.2649L1.11382 9.38838C1.05686 9.54053 1.00561 9.69471 0.960184 9.85062L3.36037 10.55ZM2.19154 17.205C2.74122 18.8588 3.18362 20.1954 3.66241 21.2381C4.15413 22.309 4.73021 23.1782 5.60701 23.8503L7.12793 21.8662C6.6901 21.5305 6.32967 21.0559 5.93436 20.1949C5.52613 19.3058 5.13098 18.1225 4.56393 16.4165L2.19154 17.205ZM7.3789 22.0444C7.29298 21.988 7.20927 21.9285 7.12793 21.8662L5.60701 23.8503C5.73659 23.9496 5.86979 24.0442 6.00634 24.1339L7.3789 22.0444ZM22.4361 16.4165C21.869 18.1225 21.4739 19.3058 21.0656 20.1949C20.6703 21.0559 20.3099 21.5305 19.8721 21.8662L21.393 23.8503C22.2698 23.1782 22.8459 22.309 23.3376 21.2381C23.8164 20.1954 24.2588 18.8588 24.8085 17.205L22.4361 16.4165ZM19.8721 21.8662C19.7907 21.9285 19.707 21.988 19.6211 22.0444L20.9937 24.1339C21.1302 24.0442 21.2634 23.9496 21.393 23.8503L19.8721 21.8662ZM19.0321 6.19734C20.516 7.25131 21.5474 7.98585 22.2881 8.64181C23.0077 9.2791 23.3562 9.76097 23.5449 10.2649L25.8862 9.38838C25.5007 8.35865 24.8312 7.55457 23.9455 6.7702C23.0809 6.00449 21.9194 5.18166 20.4797 4.15912L19.0321 6.19734ZM24.8085 17.205C25.3581 15.5514 25.8039 14.2156 26.0437 13.0964C26.2897 11.9476 26.3478 10.9076 26.0398 9.85062L23.6396 10.55C23.7893 11.0636 23.797 11.6489 23.5991 12.5727C23.3949 13.5261 23.0032 14.7102 22.4361 16.4165L24.8085 17.205ZM23.5449 10.2649C23.58 10.3588 23.6116 10.4539 23.6396 10.55L26.0398 9.85062C25.9944 9.69471 25.9431 9.54053 25.8862 9.38838L23.5449 10.2649ZM20.4797 4.15912C19.0398 3.13639 17.8807 2.31113 16.8693 1.74426C15.8321 1.16297 14.851 0.79404 13.7458 0.754405L13.6562 3.2528C14.2204 3.27303 14.8049 3.45317 15.647 3.9251C16.5147 4.41144 17.5484 5.14357 19.0321 6.19734L20.4797 4.15912ZM7.96791 6.19734C9.45159 5.14357 10.4853 4.41144 11.353 3.9251C12.1951 3.45317 12.7796 3.27303 13.3438 3.2528L13.2542 0.754405C12.149 0.79404 11.1679 1.16297 10.1307 1.74426C9.11932 2.31113 7.96025 3.13639 6.52028 4.15912L7.96791 6.19734ZM13.7458 0.754405C13.582 0.748532 13.418 0.748532 13.2542 0.754405L13.3438 3.2528C13.4479 3.24907 13.5521 3.24907 13.6562 3.2528L13.7458 0.754405ZM16.6352 18.9542V23.241H19.1352V18.9542H16.6352ZM10.3648 23.241V18.9542H7.86477V23.241H10.3648ZM13.5 15.9173C15.2584 15.9173 16.6352 17.3035 16.6352 18.9542H19.1352C19.1352 15.8696 16.5854 13.4173 13.5 13.4173V15.9173ZM13.5 13.4173C10.4146 13.4173 7.86477 15.8696 7.86477 18.9542H10.3648C10.3648 17.3035 11.7416 15.9173 13.5 15.9173V13.4173ZM14.75 21.0976V18.9542H12.25V21.0976H14.75ZM13.5 25.25C15.3593 25.25 16.8419 25.252 18.0322 25.1111L17.7382 22.6284C16.7289 22.748 15.4201 22.75 13.5 22.75V25.25ZM18.0322 25.1111C19.1493 24.9788 20.1146 24.7113 20.9937 24.1339L19.6211 22.0444C19.177 22.3361 18.628 22.5231 17.7382 22.6284L18.0322 25.1111ZM16.6352 23.241V23.8698H19.1352V23.241H16.6352ZM13.5 22.75C11.5799 22.75 10.2711 22.748 9.26176 22.6284L8.96777 25.1111C10.1581 25.252 11.6407 25.25 13.5 25.25V22.75ZM9.26176 22.6284C8.37204 22.5231 7.82295 22.3361 7.3789 22.0444L6.00634 24.1339C6.88535 24.7113 7.85065 24.9788 8.96777 25.1111L9.26176 22.6284ZM7.86477 23.241V23.8698H10.3648V23.241H7.86477Z" fill="#989A9D"/>
</svg>
