<svg width="18" height="24" viewBox="0 0 18 24" fill="none" xmlns="http://www.w3.org/2000/svg">
<path d="M13.0914 6.08653C13.0914 8.53109 11.1864 10.5128 8.83639 10.5128C6.48642 10.5128 4.58139 8.53109 4.58139 6.08653C4.58139 3.64198 6.48642 1.66028 8.83639 1.66028C11.1864 1.66028 13.0914 3.64198 13.0914 6.08653Z" fill="url(#paint0_linear_1_2801)"/>
<path d="M1.39014 18.2587C1.39014 15.8142 3.29517 13.8325 5.64514 13.8325H12.0276C14.3776 13.8325 16.2826 15.8142 16.2826 18.2587C16.2826 20.7033 14.3776 22.685 12.0276 22.685H5.64514C3.29517 22.685 1.39014 20.7033 1.39014 18.2587Z" fill="url(#paint1_linear_1_2801)"/>
<path d="M11.8414 6.08653C11.8414 7.88768 10.45 9.26279 8.83639 9.26279V11.7628C11.9227 11.7628 14.3414 9.1745 14.3414 6.08653H11.8414ZM8.83639 9.26279C7.2228 9.26279 5.83139 7.88768 5.83139 6.08653H3.33139C3.33139 9.1745 5.75003 11.7628 8.83639 11.7628V9.26279ZM5.83139 6.08653C5.83139 4.28539 7.2228 2.91028 8.83639 2.91028V0.410278C5.75003 0.410278 3.33139 2.99857 3.33139 6.08653H5.83139ZM8.83639 2.91028C10.45 2.91028 11.8414 4.28539 11.8414 6.08653H14.3414C14.3414 2.99857 11.9227 0.410278 8.83639 0.410278V2.91028ZM5.64514 15.0825H12.0276V12.5825H5.64514V15.0825ZM12.0276 21.435H5.64514V23.935H12.0276V21.435ZM5.64514 21.435C4.03155 21.435 2.64014 20.0599 2.64014 18.2587H0.140137C0.140137 21.3467 2.55878 23.935 5.64514 23.935V21.435ZM15.0326 18.2587C15.0326 20.0599 13.6412 21.435 12.0276 21.435V23.935C15.114 23.935 17.5326 21.3467 17.5326 18.2587H15.0326ZM12.0276 15.0825C13.6412 15.0825 15.0326 16.4576 15.0326 18.2587H17.5326C17.5326 15.1708 15.114 12.5825 12.0276 12.5825V15.0825ZM5.64514 12.5825C2.55878 12.5825 0.140137 15.1708 0.140137 18.2587H2.64014C2.64014 16.4576 4.03155 15.0825 5.64514 15.0825V12.5825Z" fill="url(#paint2_linear_1_2801)"/>
<defs>
<linearGradient id="paint0_linear_1_2801" x1="3.45855" y1="0.492234" x2="18.8796" y2="17.7874" gradientUnits="userSpaceOnUse">
<stop stop-color="#FFAC5F"/>
<stop offset="1" stop-color="#FF4D3C"/>
</linearGradient>
<linearGradient id="paint1_linear_1_2801" x1="3.45855" y1="0.492234" x2="18.8796" y2="17.7874" gradientUnits="userSpaceOnUse">
<stop stop-color="#FFAC5F"/>
<stop offset="1" stop-color="#FF4D3C"/>
</linearGradient>
<linearGradient id="paint2_linear_1_2801" x1="3.45855" y1="0.492234" x2="18.8796" y2="17.7874" gradientUnits="userSpaceOnUse">
<stop stop-color="#FFAC5F"/>
<stop offset="1" stop-color="#FF4D3C"/>
</linearGradient>
</defs>
</svg>
