<svg width="28" height="25" viewBox="0 0 28 25" fill="none" xmlns="http://www.w3.org/2000/svg">
<path d="M2 5.9375C2 4.7144 2 4.10285 2.22836 3.62046C2.53284 2.97726 3.11687 2.46624 3.85195 2.19982C4.40326 2 5.10218 2 6.5 2C7.89782 2 8.59674 2 9.14805 2.19982C9.88313 2.46624 10.4672 2.97726 10.7716 3.62046C11 4.10285 11 4.7144 11 5.9375C11 7.1606 11 7.77215 10.7716 8.25454C10.4672 8.89774 9.88313 9.40876 9.14805 9.67518C8.59674 9.875 7.89782 9.875 6.5 9.875C5.10218 9.875 4.40326 9.875 3.85195 9.67518C3.11687 9.40876 2.53284 8.89774 2.22836 8.25454C2 7.77215 2 7.1606 2 5.9375Z" fill="url(#paint0_linear_1_2772)"/>
<path d="M17 5.9375C17 4.7144 17 4.10285 17.2284 3.62046C17.5328 2.97726 18.1169 2.46624 18.8519 2.19982C19.4033 2 20.1022 2 21.5 2C22.8978 2 23.5967 2 24.1481 2.19982C24.8831 2.46624 25.4672 2.97726 25.7716 3.62046C26 4.10285 26 4.7144 26 5.9375C26 7.1606 26 7.77215 25.7716 8.25454C25.4672 8.89774 24.8831 9.40876 24.1481 9.67518C23.5967 9.875 22.8978 9.875 21.5 9.875C20.1022 9.875 19.4033 9.875 18.8519 9.67518C18.1169 9.40876 17.5328 8.89774 17.2284 8.25454C17 7.77215 17 7.1606 17 5.9375Z" fill="url(#paint1_linear_1_2772)"/>
<path d="M2 19.0625C2 17.8394 2 17.2279 2.22836 16.7455C2.53284 16.1023 3.11687 15.5912 3.85195 15.3248C4.40326 15.125 5.10218 15.125 6.5 15.125C7.89782 15.125 8.59674 15.125 9.14805 15.3248C9.88313 15.5912 10.4672 16.1023 10.7716 16.7455C11 17.2279 11 17.8394 11 19.0625C11 20.2856 11 20.8971 10.7716 21.3795C10.4672 22.0227 9.88313 22.5338 9.14805 22.8002C8.59674 23 7.89782 23 6.5 23C5.10218 23 4.40326 23 3.85195 22.8002C3.11687 22.5338 2.53284 22.0227 2.22836 21.3795C2 20.8971 2 20.2856 2 19.0625Z" fill="url(#paint2_linear_1_2772)"/>
<path d="M17 19.0625C17 17.8394 17 17.2279 17.2284 16.7455C17.5328 16.1023 18.1169 15.5912 18.8519 15.3248C19.4033 15.125 20.1022 15.125 21.5 15.125C22.8978 15.125 23.5967 15.125 24.1481 15.3248C24.8831 15.5912 25.4672 16.1023 25.7716 16.7455C26 17.2279 26 17.8394 26 19.0625C26 20.2856 26 20.8971 25.7716 21.3795C25.4672 22.0227 24.8831 22.5338 24.1481 22.8002C23.5967 23 22.8978 23 21.5 23C20.1022 23 19.4033 23 18.8519 22.8002C18.1169 22.5338 17.5328 22.0227 17.2284 21.3795C17 20.8971 17 20.2856 17 19.0625Z" fill="url(#paint3_linear_1_2772)"/>
<path d="M2 5.9375C2 4.7144 2 4.10285 2.22836 3.62046C2.53284 2.97726 3.11687 2.46624 3.85195 2.19982C4.40326 2 5.10218 2 6.5 2C7.89782 2 8.59674 2 9.14805 2.19982C9.88313 2.46624 10.4672 2.97726 10.7716 3.62046C11 4.10285 11 4.7144 11 5.9375C11 7.1606 11 7.77215 10.7716 8.25454C10.4672 8.89774 9.88313 9.40876 9.14805 9.67518C8.59674 9.875 7.89782 9.875 6.5 9.875C5.10218 9.875 4.40326 9.875 3.85195 9.67518C3.11687 9.40876 2.53284 8.89774 2.22836 8.25454C2 7.77215 2 7.1606 2 5.9375Z" stroke="url(#paint4_linear_1_2772)" stroke-width="2.5"/>
<path d="M17 5.9375C17 4.7144 17 4.10285 17.2284 3.62046C17.5328 2.97726 18.1169 2.46624 18.8519 2.19982C19.4033 2 20.1022 2 21.5 2C22.8978 2 23.5967 2 24.1481 2.19982C24.8831 2.46624 25.4672 2.97726 25.7716 3.62046C26 4.10285 26 4.7144 26 5.9375C26 7.1606 26 7.77215 25.7716 8.25454C25.4672 8.89774 24.8831 9.40876 24.1481 9.67518C23.5967 9.875 22.8978 9.875 21.5 9.875C20.1022 9.875 19.4033 9.875 18.8519 9.67518C18.1169 9.40876 17.5328 8.89774 17.2284 8.25454C17 7.77215 17 7.1606 17 5.9375Z" stroke="url(#paint5_linear_1_2772)" stroke-width="2.5"/>
<path d="M2 19.0625C2 17.8394 2 17.2279 2.22836 16.7455C2.53284 16.1023 3.11687 15.5912 3.85195 15.3248C4.40326 15.125 5.10218 15.125 6.5 15.125C7.89782 15.125 8.59674 15.125 9.14805 15.3248C9.88313 15.5912 10.4672 16.1023 10.7716 16.7455C11 17.2279 11 17.8394 11 19.0625C11 20.2856 11 20.8971 10.7716 21.3795C10.4672 22.0227 9.88313 22.5338 9.14805 22.8002C8.59674 23 7.89782 23 6.5 23C5.10218 23 4.40326 23 3.85195 22.8002C3.11687 22.5338 2.53284 22.0227 2.22836 21.3795C2 20.8971 2 20.2856 2 19.0625Z" stroke="url(#paint6_linear_1_2772)" stroke-width="2.5"/>
<path d="M17 19.0625C17 17.8394 17 17.2279 17.2284 16.7455C17.5328 16.1023 18.1169 15.5912 18.8519 15.3248C19.4033 15.125 20.1022 15.125 21.5 15.125C22.8978 15.125 23.5967 15.125 24.1481 15.3248C24.8831 15.5912 25.4672 16.1023 25.7716 16.7455C26 17.2279 26 17.8394 26 19.0625C26 20.2856 26 20.8971 25.7716 21.3795C25.4672 22.0227 24.8831 22.5338 24.1481 22.8002C23.5967 23 22.8978 23 21.5 23C20.1022 23 19.4033 23 18.8519 22.8002C18.1169 22.5338 17.5328 22.0227 17.2284 21.3795C17 20.8971 17 20.2856 17 19.0625Z" stroke="url(#paint7_linear_1_2772)" stroke-width="2.5"/>
<defs>
<linearGradient id="paint0_linear_1_2772" x1="5.33334" y1="0.833329" x2="18.4607" y2="24.5875" gradientUnits="userSpaceOnUse">
<stop stop-color="#FFAC5F"/>
<stop offset="1" stop-color="#FF4D3C"/>
</linearGradient>
<linearGradient id="paint1_linear_1_2772" x1="5.33334" y1="0.833329" x2="18.4607" y2="24.5875" gradientUnits="userSpaceOnUse">
<stop stop-color="#FFAC5F"/>
<stop offset="1" stop-color="#FF4D3C"/>
</linearGradient>
<linearGradient id="paint2_linear_1_2772" x1="5.33334" y1="0.833329" x2="18.4607" y2="24.5875" gradientUnits="userSpaceOnUse">
<stop stop-color="#FFAC5F"/>
<stop offset="1" stop-color="#FF4D3C"/>
</linearGradient>
<linearGradient id="paint3_linear_1_2772" x1="5.33334" y1="0.833329" x2="18.4607" y2="24.5875" gradientUnits="userSpaceOnUse">
<stop stop-color="#FFAC5F"/>
<stop offset="1" stop-color="#FF4D3C"/>
</linearGradient>
<linearGradient id="paint4_linear_1_2772" x1="5.33334" y1="0.833329" x2="18.4607" y2="24.5875" gradientUnits="userSpaceOnUse">
<stop stop-color="#FFAC5F"/>
<stop offset="1" stop-color="#FF4D3C"/>
</linearGradient>
<linearGradient id="paint5_linear_1_2772" x1="5.33334" y1="0.833329" x2="18.4607" y2="24.5875" gradientUnits="userSpaceOnUse">
<stop stop-color="#FFAC5F"/>
<stop offset="1" stop-color="#FF4D3C"/>
</linearGradient>
<linearGradient id="paint6_linear_1_2772" x1="5.33334" y1="0.833329" x2="18.4607" y2="24.5875" gradientUnits="userSpaceOnUse">
<stop stop-color="#FFAC5F"/>
<stop offset="1" stop-color="#FF4D3C"/>
</linearGradient>
<linearGradient id="paint7_linear_1_2772" x1="5.33334" y1="0.833329" x2="18.4607" y2="24.5875" gradientUnits="userSpaceOnUse">
<stop stop-color="#FFAC5F"/>
<stop offset="1" stop-color="#FF4D3C"/>
</linearGradient>
</defs>
</svg>
