<svg width="25" height="24" viewBox="0 0 25 24" fill="none" xmlns="http://www.w3.org/2000/svg">
<path d="M5.7001 3.46704C2.52222 5.73232 0.933279 6.86496 0.309211 8.53802C0.259148 8.67223 0.214119 8.8082 0.174214 8.94565C-0.32323 10.6591 0.283691 12.4917 1.49753 16.157C2.71138 19.8223 3.3183 21.655 4.74725 22.7543C4.86188 22.8425 4.97977 22.9265 5.10067 23.0062C5.60909 23.3414 6.16948 23.5635 6.83971 23.7107V18.4953C6.83971 15.4282 9.3739 12.9419 12.5 12.9419C15.6261 12.9419 18.1603 15.4282 18.1603 18.4953V23.7107C18.8305 23.5635 19.3909 23.3414 19.8993 23.0062C20.0202 22.9265 20.1381 22.8425 20.2528 22.7543C21.6817 21.655 22.2886 19.8223 23.5025 16.157C24.7163 12.4917 25.3232 10.6591 24.8258 8.94565C24.7859 8.8082 24.7409 8.67223 24.6908 8.53802C24.0667 6.86496 22.4778 5.73232 19.2999 3.46705C16.122 1.20177 14.5331 0.0691206 12.7184 0.00380747C12.5729 -0.00143192 12.4271 -0.00143192 12.2816 0.00380747C10.4669 0.0691206 8.87798 1.20176 5.7001 3.46704Z" fill="url(#paint0_linear_1_2766)"/>
<path fill-rule="evenodd" clip-rule="evenodd" d="M16.3728 23.936V18.4953C16.3728 16.3968 14.6389 14.6956 12.5 14.6956C10.3611 14.6956 8.62717 16.3968 8.62717 18.4953V23.936C9.66741 23.9999 10.926 23.9999 12.5 23.9999C14.074 23.9999 15.3326 23.9999 16.3728 23.936ZM13.3937 18.4953C13.3937 18.011 12.9936 17.6185 12.5 17.6185C12.0064 17.6185 11.6063 18.011 11.6063 18.4953V20.8336C11.6063 21.3179 12.0064 21.7105 12.5 21.7105C12.9936 21.7105 13.3937 21.3179 13.3937 20.8336V18.4953Z" fill="url(#paint1_linear_1_2766)"/>
<defs>
<linearGradient id="paint0_linear_1_2766" x1="3.47223" y1="-1.33346" x2="19.1835" y2="24.5792" gradientUnits="userSpaceOnUse">
<stop stop-color="#FFAC5F"/>
<stop offset="1" stop-color="#FF4D3C"/>
</linearGradient>
<linearGradient id="paint1_linear_1_2766" x1="3.47223" y1="-1.33346" x2="19.1835" y2="24.5792" gradientUnits="userSpaceOnUse">
<stop stop-color="#FFAC5F"/>
<stop offset="1" stop-color="#FF4D3C"/>
</linearGradient>
</defs>
</svg>
