<svg width="27" height="27" viewBox="0 0 27 27" fill="none" xmlns="http://www.w3.org/2000/svg">
<path d="M18.1684 25.9093C21.9498 24.6072 24.8258 21.694 26.1489 18.0712C26.9304 15.9315 24.6088 13.9976 22.6486 15.1195C18.954 17.2339 14.2678 15.4666 12.8869 11.4562C12.0863 9.13117 12.6123 6.59402 14.2096 4.77954C15.7054 3.08026 14.2664 0.421102 12.0183 0.758484C11.2311 0.876854 10.4563 1.06674 9.7036 1.32578C2.91626 3.66285 -0.693894 11.0594 1.64425 17.8499C3.98132 24.6373 11.378 28.2474 18.1684 25.9093ZM10.4972 3.63048C11.1206 3.41581 11.7505 3.26344 12.38 3.16897C10.2659 5.57058 9.46604 9.00824 10.5822 12.2498C12.4644 17.7162 18.8518 20.1008 23.8593 17.235C22.8051 20.1216 20.5068 22.5261 17.3748 23.6046C11.8591 25.5038 5.84815 22.572 3.94895 17.0563C2.04975 11.5407 4.9815 5.52968 10.4972 3.63048Z" fill="black"/>
</svg>
