<svg width="26" height="26" viewBox="0 0 26 26" fill="none" xmlns="http://www.w3.org/2000/svg">
<path d="M13.0001 23.833C18.9832 23.833 23.8334 18.9827 23.8334 12.9997C23.8334 7.01657 18.9832 2.16632 13.0001 2.16632C7.017 2.16632 2.16675 7.01657 2.16675 12.9997C2.16675 18.9827 7.017 23.833 13.0001 23.833Z" stroke="black" stroke-width="2" stroke-miterlimit="10"/>
<path d="M12.4448 23.8194C9.77031 21.0027 8.125 17.1907 8.125 12.9996C8.125 8.80846 9.77031 4.99648 12.4448 2.17981" stroke="black" stroke-width="2" stroke-miterlimit="10"/>
<path d="M13.5417 23.8194C16.2162 21.0027 17.8615 17.1907 17.8615 12.9996C17.8615 8.80846 16.2162 4.99648 13.5417 2.17981" stroke="black" stroke-width="2" stroke-miterlimit="10"/>
<path d="M21.7073 19.4455C19.4052 17.8002 16.3448 16.7913 13 16.7913C9.64845 16.7913 6.59481 17.7934 4.29272 19.4455" stroke="black" stroke-width="2" stroke-miterlimit="10"/>
<path d="M4.29272 6.55389C6.59481 8.19921 9.65522 9.20806 13 9.20806C16.3516 9.20806 19.4052 8.20598 21.7073 6.55389" stroke="black" stroke-width="2" stroke-miterlimit="10"/>
</svg>
