<svg width="21" height="28" viewBox="0 0 21 28" fill="none" xmlns="http://www.w3.org/2000/svg">
<path d="M14.9286 6.47368C14.9286 8.95225 12.938 10.9474 10.5 10.9474V12.9474C14.0582 12.9474 16.9286 10.0412 16.9286 6.47368H14.9286ZM10.5 10.9474C8.06195 10.9474 6.07143 8.95225 6.07143 6.47368H4.07143C4.07143 10.0412 6.94181 12.9474 10.5 12.9474V10.9474ZM6.07143 6.47368C6.07143 3.99512 8.06195 2 10.5 2V0C6.94181 0 4.07143 2.90619 4.07143 6.47368H6.07143ZM10.5 2C12.938 2 14.9286 3.99512 14.9286 6.47368H16.9286C16.9286 2.90619 14.0582 0 10.5 0V2ZM6.42857 17.0526H14.5714V15.0526H6.42857V17.0526ZM14.5714 26H6.42857V28H14.5714V26ZM6.42857 26C3.99053 26 2 24.0049 2 21.5263H0C0 25.0938 2.87038 28 6.42857 28V26ZM19 21.5263C19 24.0049 17.0095 26 14.5714 26V28C18.1296 28 21 25.0938 21 21.5263H19ZM14.5714 17.0526C17.0095 17.0526 19 19.0477 19 21.5263H21C21 17.9588 18.1296 15.0526 14.5714 15.0526V17.0526ZM6.42857 15.0526C2.87038 15.0526 0 17.9588 0 21.5263H2C2 19.0477 3.99053 17.0526 6.42857 17.0526V15.0526Z" fill="#121212"/>
</svg>
