<svg width="22" height="23" viewBox="0 0 22 23" fill="none" xmlns="http://www.w3.org/2000/svg">
<path d="M9.66814 17.7502C10.6203 17.7502 11.5632 17.5626 12.4428 17.1983C13.3225 16.8339 14.1218 16.2998 14.7951 15.6265C15.4684 14.9532 16.0025 14.1539 16.3669 13.2742C16.7312 12.3946 16.9188 11.4517 16.9188 10.4995C16.9188 9.54738 16.7312 8.60454 16.3669 7.72485C16.0025 6.84516 15.4684 6.04586 14.7951 5.37257C14.1218 4.69929 13.3225 4.16521 12.4428 3.80083C11.5632 3.43645 10.6203 3.24891 9.66814 3.24891C7.74515 3.24891 5.90092 4.01281 4.54116 5.37257C3.1814 6.73233 2.41749 8.57656 2.41749 10.4995C2.41749 12.4225 3.1814 14.2668 4.54116 15.6265C5.90092 16.9863 7.74515 17.7502 9.66814 17.7502ZM17.3055 16.4282L21.6317 20.7544C21.747 20.8659 21.839 20.9993 21.9022 21.1468C21.9655 21.2943 21.9987 21.4529 22 21.6133C22.0012 21.7738 21.9706 21.9329 21.9097 22.0814C21.8488 22.2298 21.759 22.3647 21.6455 22.4781C21.5319 22.5915 21.3969 22.6811 21.2484 22.7418C21.0998 22.8024 20.9407 22.8329 20.7802 22.8314C20.6198 22.8299 20.4612 22.7964 20.3138 22.733C20.1664 22.6695 20.0332 22.5774 19.9218 22.4619L15.5955 18.1357C13.6529 19.6436 11.2087 20.3546 8.7603 20.1238C6.31195 19.893 4.04357 18.7379 2.41695 16.8935C0.79032 15.0491 -0.0722793 12.6541 0.00474799 10.1961C0.0817753 7.73814 1.09264 5.40189 2.83156 3.66298C4.57048 1.92406 6.90673 0.913196 9.36473 0.836169C11.8227 0.759142 14.2177 1.62174 16.0621 3.24837C17.9065 4.87499 19.0616 7.14336 19.2924 9.59171C19.5232 12.0401 18.8122 14.4843 17.3043 16.4269L17.3055 16.4282Z" fill="#121212"/>
</svg>
