<svg width="16" height="15" viewBox="0 0 16 15" fill="none" xmlns="http://www.w3.org/2000/svg">
<path d="M14.9054 6.65428L8.40292 13.7997C8.34864 13.9218 8.24293 13.9955 8.12437 13.997C8.08294 14.0017 8.04151 14.0017 8.00009 13.9908C7.95866 14.0017 7.91723 14.0017 7.87581 13.997C7.75724 13.9955 7.65153 13.9218 7.59725 13.7997L1.09475 6.65428C1.0019 6.55091 0.977615 6.40368 1.02047 6.27524C1.01761 6.20789 1.02618 6.13898 1.05904 6.07632L3.62033 1.23338C3.62318 1.22868 3.62747 1.22554 3.63033 1.22085C3.68032 1.09084 3.79746 1 3.9346 1H12.067C12.2041 1 12.3213 1.09084 12.3713 1.22085C12.3741 1.22554 12.3784 1.22868 12.3813 1.23338L14.9426 6.07632C14.9754 6.13898 14.984 6.20789 14.9811 6.27524C15.0211 6.40368 14.9983 6.55091 14.9054 6.65428ZM11.0956 6.79681L9.31573 11.433L13.5341 6.79681H11.0956ZM8.00009 12.4574L10.1743 6.79681H5.82592L8.00009 12.4574ZM6.68444 11.433L4.90454 6.79681H2.4661L6.68444 11.433ZM4.26172 1.9664L2.21755 5.83042H4.81455L5.86163 1.9664H4.26172ZM6.78872 1.9664L5.74307 5.83042H10.2571L9.21002 1.9664H6.78872ZM11.7385 1.9664H10.1385L11.1856 5.83042H13.7841L11.7385 1.9664Z" fill="white" stroke="white" stroke-width="0.2"/>
</svg>
