<svg width="112" height="43" viewBox="0 0 112 43" fill="none" xmlns="http://www.w3.org/2000/svg">
<path d="M21.4198 42.3623C32.8987 42.3623 42.2043 33.0219 42.2043 21.5C42.2043 9.97806 32.8987 0.637695 21.4198 0.637695C9.94089 0.637695 0.635376 9.97806 0.635376 21.5C0.635376 33.0219 9.94089 42.3623 21.4198 42.3623Z" stroke="black" stroke-width="0.8"/>
<path d="M31.3802 9.35504V14.2614H17.4197V19.9483H30.2323V24.483H17.4197V30.9877H31.6765V35.8941H11.6058V9.35504H31.3802Z" fill="black"/>
<path d="M58.1019 12.1344V14.3711H51.7375V16.9637H57.5785V19.031H51.7375V21.9963H58.2369V24.233H49.087V12.1344H58.1019ZM63.138 12.1344V21.9963H69.0129V24.233H60.4876V12.1344H63.138ZM73.5989 12.1344V24.233H70.9485V12.1344H73.5989ZM80.7533 24.5211C80.0105 24.5211 79.324 24.4251 78.6937 24.233C78.0635 24.041 77.5176 23.7642 77.0562 23.4027C76.606 23.03 76.2515 22.5837 75.9926 22.0641C75.745 21.5445 75.6212 20.957 75.6212 20.3018V20.2171H78.1873C78.1873 20.9288 78.4236 21.4823 78.8963 21.8777C79.3802 22.2618 80.0274 22.4538 80.8377 22.4538C81.5467 22.4538 82.1151 22.3296 82.5427 22.081C82.9816 21.8325 83.2011 21.4541 83.2011 20.9457C83.2011 20.6181 83.0829 20.3414 82.8466 20.1154C82.6103 19.8895 82.2951 19.7031 81.9012 19.5562C81.7099 19.4885 81.4454 19.415 81.1078 19.336C80.7814 19.2456 80.3819 19.1439 79.9092 19.031C79.369 18.8954 78.9075 18.7598 78.5249 18.6243C78.1422 18.4774 77.8159 18.3249 77.5457 18.1668C77.2756 18.0086 77.0506 17.8392 76.8705 17.6584C76.7017 17.4664 76.5497 17.263 76.4147 17.0484C76.1558 16.6191 76.0264 16.0995 76.0264 15.4895C76.0264 14.7326 76.2402 14.0717 76.6679 13.5069C77.0956 12.9421 77.6639 12.5241 78.373 12.253C79.0707 11.9819 79.791 11.8463 80.5338 11.8463C81.2766 11.8463 81.9406 11.9367 82.5258 12.1174C83.1223 12.2869 83.6288 12.5354 84.0452 12.863C84.4729 13.1906 84.7992 13.5973 85.0243 14.083C85.2494 14.5688 85.362 15.1223 85.362 15.7436H82.796C82.7622 15.1336 82.554 14.6761 82.1713 14.3711C81.7999 14.0661 81.2203 13.9136 80.4325 13.9136C79.881 13.9136 79.4365 14.0379 79.0989 14.2864C78.7612 14.5236 78.5924 14.8569 78.5924 15.2861C78.5924 15.6363 78.6937 15.8905 78.8963 16.0487C79.1101 16.2068 79.4084 16.348 79.791 16.4723C79.9823 16.5288 80.2412 16.6022 80.5676 16.6926C80.9052 16.7829 81.316 16.8903 81.7999 17.0145C82.3064 17.1388 82.7453 17.2687 83.1167 17.4042C83.4994 17.5285 83.8314 17.6697 84.1127 17.8279C84.3941 17.9747 84.6361 18.1442 84.8386 18.3362C85.0412 18.517 85.21 18.7203 85.3451 18.9462C85.6264 19.3981 85.7671 19.9629 85.7671 20.6407C85.7671 21.4202 85.5645 22.1036 85.1594 22.6911C84.7542 23.2785 84.1634 23.7303 83.3868 24.0467C82.9929 24.2048 82.5765 24.3234 82.1376 24.4025C81.7099 24.4816 81.2485 24.5211 80.7533 24.5211ZM90.4484 12.1344V16.7773H95.3272V12.1344H97.9777V24.233H95.3272V19.014H90.4484V24.233H87.798V12.1344H90.4484ZM103.415 12.1344V24.233H100.765V12.1344H103.415Z" fill="black"/>
<path d="M50.0932 27.4879L50.8207 29.635H50.8294L51.5178 27.4879H52.4806V30.6102H51.8402V28.3975H51.8314L51.069 30.6102H50.5419L49.7795 28.4193H49.7708V30.6102H49.1304V27.4879H50.0932ZM55.0874 27.4879L56.2506 30.6102H55.5405L55.3053 29.9149H54.1421L53.8981 30.6102H53.2054L54.386 27.4879H55.0874ZM54.7345 28.2575H54.7258L54.3207 29.4032H55.1266L54.7345 28.2575ZM58.3058 27.4879C58.5266 27.4879 58.7241 27.5229 58.8983 27.5929C59.0755 27.6628 59.2251 27.7649 59.3471 27.899C59.469 28.0331 59.562 28.1949 59.6259 28.3844C59.6927 28.5738 59.7261 28.7896 59.7261 29.0315C59.7261 29.2793 59.6927 29.5024 59.6259 29.7006C59.562 29.8959 59.469 30.0606 59.3471 30.1947C59.2251 30.3288 59.0769 30.4323 58.9027 30.5052C58.7313 30.5752 58.5382 30.6102 58.3233 30.6102H56.9727V27.4879H58.3058ZM58.2623 30.0329C58.5091 30.0329 58.7008 29.9513 58.8373 29.7881C58.9738 29.6248 59.0421 29.393 59.0421 29.0928C59.0421 28.7488 58.9695 28.4922 58.8243 28.3231C58.679 28.1511 58.4525 28.0651 58.1446 28.0651H57.6567V30.0329H58.2623ZM62.9821 27.4879V28.0651H61.3396V28.7342H62.847V29.2677H61.3396V30.0329H63.0169V30.6102H60.6557V27.4879H62.9821ZM65.9972 27.4879L66.4895 29.6131H66.4982L67.0384 27.4879H67.6788L68.2103 29.6394H68.219L68.7287 27.4879H69.3996L68.5632 30.6102H67.8836L67.3564 28.4849H67.3477L66.8293 30.6102H66.1366L65.3132 27.4879H65.9972ZM70.8526 27.4879V30.6102H70.1686V27.4879H70.8526ZM71.6634 28.0651V27.4879H74.212V28.0651H73.2797V30.6102H72.5957V28.0651H71.6634ZM75.7083 27.4879V28.6861H76.9674V27.4879H77.6513V30.6102H76.9674V29.2633H75.7083V30.6102H75.0243V27.4879H75.7083ZM81.0576 27.4879V30.0329H82.5737V30.6102H80.3736V27.4879H81.0576ZM84.6211 30.6845C84.3917 30.6845 84.1826 30.6451 83.9938 30.5664C83.805 30.4848 83.6438 30.3726 83.5102 30.2297C83.3766 30.0869 83.2735 29.9163 83.2009 29.7181C83.1283 29.5169 83.092 29.2983 83.092 29.0622C83.092 28.8202 83.1283 28.5986 83.2009 28.3975C83.2764 28.1963 83.3809 28.0229 83.5145 27.8771C83.6481 27.7313 83.8093 27.6176 83.9981 27.536C84.1869 27.4544 84.3946 27.4136 84.6211 27.4136C84.8506 27.4136 85.0597 27.4544 85.2485 27.536C85.4372 27.6147 85.5984 27.727 85.732 27.8727C85.8656 28.0185 85.9687 28.1919 86.0414 28.3931C86.114 28.5943 86.1503 28.8173 86.1503 29.0622C86.1503 29.2983 86.1125 29.5169 86.037 29.7181C85.9644 29.9163 85.8613 30.0869 85.7277 30.2297C85.5941 30.3726 85.4329 30.4848 85.2441 30.5664C85.0553 30.6451 84.8477 30.6845 84.6211 30.6845ZM84.6211 30.1073C84.8854 30.1073 85.0916 30.014 85.2397 29.8274C85.3908 29.6408 85.4663 29.3857 85.4663 29.0622C85.4663 28.7269 85.3922 28.4645 85.2441 28.275C85.096 28.0855 84.8869 27.9908 84.6168 27.9908C84.3525 27.9908 84.1462 28.0855 83.9981 28.275C83.85 28.4645 83.7759 28.7269 83.7759 29.0622C83.7759 29.2196 83.7948 29.3624 83.8326 29.4907C83.8703 29.619 83.9255 29.7297 83.9981 29.823C84.0707 29.9134 84.1593 29.9834 84.2639 30.0329C84.3684 30.0825 84.4875 30.1073 84.6211 30.1073ZM87.4037 27.4879L88.0964 29.6831H88.1051L88.8065 27.4879H89.5123L88.4798 30.6102H87.7086L86.6979 27.4879H87.4037ZM92.5577 27.4879V28.0651H90.9153V28.7342H92.4226V29.2677H90.9153V30.0329H92.5925V30.6102H90.2313V27.4879H92.5577Z" fill="black"/>
</svg>
